<mxfile host="app.diagrams.net" agent="Mozilla/5.0 (Windows NT 10.0; Win64; x64) AppleWebKit/537.36 (KHTML, like Gecko) Chrome/128.0.0.0 Safari/537.36" version="24.7.6">
  <diagram name="Page-1" id="4gqoe5h_50rMNO6r3naP">
    <mxGraphModel dx="1290" dy="1657" grid="1" gridSize="10" guides="1" tooltips="1" connect="1" arrows="1" fold="1" page="1" pageScale="1" pageWidth="850" pageHeight="1100" math="0" shadow="0">
      <root>
        <mxCell id="0" />
        <mxCell id="1" parent="0" />
        <UserObject label="" plantUmlData="{&#xa;  &quot;data&quot;: &quot;@startuml\nactor TeraAskebari as Tera\nactor TaxiDriver as Taxi\nactor CentralAdmin as Admin\n\nparticipant \&quot;Queue Management System\&quot; as QMS\nparticipant \&quot;Taxi Dispatch System\&quot; as TDS\nparticipant \&quot;GPS System\&quot; as GPS\n\nTera -&gt; QMS: Report Queue Length\nQMS -&gt; Admin: Update Queue Information\nQMS -&gt; TDS: Check Queue Threshold\nTDS -&gt; GPS: Find Nearby Available Taxis\nGPS -&gt; TDS: Return Available Taxis\n\nalt Queue Length Exceeds Threshold\n    TDS -&gt; Taxi: Dispatch Notification\n    Taxi -&gt; TDS: Accept Dispatch\n    TDS -&gt; QMS: Update Taxi Assignment\nend\n\nAdmin -&gt; QMS: Monitor Queue Lengths\nAdmin -&gt; TDS: View Dispatch History\nAdmin -&gt; GPS: Track Taxi Locations\n\nTaxi -&gt; GPS: Update Location\nGPS -&gt; TDS: Update Taxi Status\n\nAdmin -&gt; Tera: View Queue Reports\n\n@enduml\n&quot;,&#xa;  &quot;format&quot;: &quot;png&quot;&#xa;}" id="P0wccxcSDJ5ZCfwXDqQP-1">
          <mxCell style="shape=image;noLabel=1;verticalAlign=top;aspect=fixed;imageAspect=0;image=data:image/png,iVBORw0KGgoAAAANSUhEUgAAA1UAAAJXCAIAAAD0IukuAAAAKnRFWHRjb3B5bGVmdABHZW5lcmF0ZWQgYnkgaHR0cHM6Ly9wbGFudHVtbC5jb212zsofAAAB8WlUWHRwbGFudHVtbAABAAAAeJxlk0Fz2jAQhe/6FTs5tQcyhDCZjg+dOEDSUpwm2OG+2AtoYkseSabh33cl28U0nJDfp93nt+t769C4pioF5k4byMhgbN9pi0YC2nDuJfyQcyOPZILAp06YkXIGy7iopPJS+CNEzYVlLmtUDq5eG2oIElS4p4p5SE/WUXXl+dckvYR9bZhLW6PLD0Mym/9HPr2kQ52PQnjLMPruy0awplobB237Fam9OwgWvB5sRvBWF+ioI36qnTYVOqlVj3HPCGYHyt87JjsYsgddFoIlT3DXCB6lKuCZ0GxPEB9RlrgtKaRkhXfZV1qTa4z6hAgsL13C4iMnKuygHfCva+kvReeInrWTO5m3vgPmE+xbxnlOtftHD+uEjLoEwp3YWrlXfkKCVCFEO9SeTLSSfuJDo/bMhG4bSX/Ozn5IyxdOZyaElRnkOEPDlW5tcwS96YB0pnr5IsOh4dSha+zAqB9/56K12a6AFff8Qn7RxUvJu/OWrIBX2XJtuLmejCfT6+mXFB3EtYHxHdxMo9vbaDKGpyQDL38VSzwirBvlZEUR/K5JLee/+gewUEdpdBvdcpOcgbvp6EHywpPxn84mEXPaYcPjXqhcF1Lt+YWyx9E3sUK1b/j7iICUmGmua06speIvUdQukPvpGVsAAGZmSURBVHhe7N0NkFxHeeh9kRjFLipAfMup/ZK0srRoZTvy2o5cCmjBWHzYC3E2XBUxqVSW2oCrHEGuU3Bj5OAvYRuWmNi+GJtSJXzkFW/BGwipiLp27KwcGdhkqZvXvkmsvDZZGWTHrLOEFa4UVRCReTvbUd9293N6emZnzj5nzv9Xp7Z6+nSfc+aZZ+Y8PnNGXtcAAABAnawLOwAAANDTqP8AAADqhfoPAACgXqj/AAAA6kVX/ffkk0/dddc9t9/+EbN8+MMzH//4x7/5zW+Gg+qHsIhMEO6553/ccceMCYv5a9qEBQCAHFrqvxMnnr3hhpvuvfcPjx175sSJk3Yx7YMHP3PrrQeee+65cEI9EBaReeI33XTLffd9KgiL6TH9tQ0LAACZVNR/3/jG33zgAzctLPyzO5f7y9NPL91664cef/zxcFqvIyyixx577IMfvKUoLKbfrDVjwmkAAOC0ta//vv3tZ0yVE5/I/eWZZ04eOHBbra7rEBaRebKmvItDESxmTK3CAgBAS9a4/vv3f29cf/0Hi67l+Mu3v/3dAwcOhPN7FGEpcuONN+eExYwxI8PJAABgxRrXf//7fz9x332fjs/f4vLZzx566qmnwk30IsIiMk/zk5/8TBwBcTEjaxIWAABatcb13+/93t3+LfzpZWHhO/fdd1+4iV5EWEQf//i9+WExI834cBMAAGDN67+bb749PnMXLf/0Ty/ceeed4SZ6EWER3XHHTPz0E4sZH24CAACsef130023xaftouWZZ07WpNAhLKLbb/9I/PQTixkfbgIAAKx5/ceFLhFhEXH9DwCAjljj+o8b3USERcT9fwAAdMQa13/80FVEWET8/hcAgI5Y4/qPf+hORFiK8O//AQCwemtc/zX4H10UICwi/v8fAACs3trXfw3+R7cFCIuI//8vAACrpKL+M06cePaGG266994/9G/wN+2DBz9z660Hansth7CIzBO/6aZb7rvvU0FYTI/pr21YAADIpKX+s5588qm77rrn9ts/8mu/9usf/vDMxz/+8W9+85vhoPohLCIThHvu+R933DFjwmL+mjZhAQAgh676z6nJP2jXKsIiIiwAALSE+q9KCIuIsAAA0BLqvyohLCLCAgBAS6j/qoSwiAgLAAAtof6rEsIiIiwAALSE+q9KCIuIsAAA0BLqvyohLCLCAgBAS8qu/77whS/cmeFtb3tb2CUxWwt3UE2ERURYAADohrLrv0x3ckVHQlhEhAUAgJZQ/1UJYRERFgAAWkL9VyWERURYAABoCfVflRAWEWEBAKAl1H9VQlhEhAUAgJZQ/1UJYRERFgAAWkL9VyWERURYAABoCfVflRAWEWEBAKAl1H9VQlhEhAUAgJZQ/1UJYRERFgAAWkL9VyWERURYAABoCfVflRAWEWEBAKAl1H9VQlhEhAUAgJZQ/1UJYRERFgAAWkL9VyWERURYAABoCfVflRAWEWEBAKAl1H9VQlhEhAUAgJZQ/1UJYRERFgAAWqKx/vvBD35w9dVXm7/hinojLCLCAgBAq9TVfz/+8Y9vvPHGJ554wvw17XB1XREWEWEBAKAN6uq/O++886mnnjIN85fv9RzCIiIs+b73veXbbpu5+ebbb7zxNpY6LzfddNstt9x+9OijYYq8GAnTG0vmy10T9czqohzQVf999rOf/frXv+4emrbp8dbXFGEREZaW3H77R5944sSJEydZWMzyuc998Qtf+EKYJR4SppeWpi93TdQ5q+McUFT/Pfjgg1/60peCTtNj+oPOWiEsIsLSKvOfgPEnAkttl2eeOfnhD384zBIPCdNLS9OXuybqnNVxDmip/x5//PH77rsv7F1h+s3asLceCIuIsLThxhvr+8HHIi7pWyZImB5b0i93TdQ8q4McUFH/PfPMMx/60IfCXo9Za8aEvb2OsIgIS3tq/sHHEi/pgoCE6bEl/XLXRM2zWl399/3vf/+GG2740Y9+FK7wmLVmjBkZruhdhEVEWNpW8w8+lnhJFwQkTI8t6Ze7Jmqe1brqv/xTdc6Jv2cQFhFhWY2af/CxxEu6ICBhemxJv9w1UfOs1lX/tfRVXdMv/noGYRERltWo+QcfS7ykCwISpseW9MtdEzXPakX1Xxu36idu/O8ZhEVEWFap5h98LPGSLghImB5b0i93TdQ8q7XUf23/Ux3iP/zRMwiLiLCsXs0/+FjiJV0QkDA9tqRf7pqoeVarqP9W+U/1Bv/wb88gLCLC0hE1/+BjiZd0QdDVhBka2hh35i+rnN72slb77ciSfrlroqtZrX9Z+/qvI/+rrjtP/4+/egZhERGWTin64Dt27FlzVrOLaccDurr4J9Tqnlxzjrwjcc7ZUf6SfmeJCfO+991gn8IZZ5xhG6YnHtZ0ec1rXhd3BssrX/kzdhd//Mf/s43prS45sc0ZY5fKvdw1IWb1iYLXy2Wg3ymOFJf8kYmlqzlQdv33z//8zzfeeOOPf/zjcEWLzBbMdszWwhXVRFhEhKWDij74/M+Xzn7W5Czd3vuWLSNxZ8eXnCPvyDNte6K4pAuCooSxS2ePRFzcLvbufUfbp8/8JecZ5YyJR+bPCpa2J4pL+uWuiaKsFl+v/E5xyR+ZWNqeKC5rXP99+tOf/sEPfhD2tsVsx2wt7K0mwiIiLB20+g++b3zjH4ZO/+esabc6Ulxe/vJXnH/+z5mG+WvatlP87+ahletAQac40u/cvv182ykekvvve7fWbkQcPCQdgFvlPxQXf4y7fOV3urb4pOLxJwqOs+hJxUu6IChKGLsERyIesz/Gb19++ZvMQfrTxSV/etHe49dLHBnvIhh5552fSGxTXPytVeLlromirM5/vcSR4iKOFLe5VjlQdv0HYE3kfPC5djc6xcV8cl111X81jTe/+S3upL5z5y43wBVwZu3eve+wbbdNcaS493Rn0BAHiwfwq7/6zqHTX4aatpsVL+KpQtyR3+meoLij9PS4ESzpgqAoYcRtii+E/5SDp190SEVjgvGJh+5I/NfLHZJ4nGJs3doTK996f+5zXw62mX4KlXu5a6Ioq8Wg+Z3uBRVfWXERR6ZfxBPl5gD1H1ALOR984sdHpzrFxa5dt27dli2vEkfmbzM9Mt0ZNNKDg3b8UFzsf+LfcstHiia6tnjaiMcHD+PjjBvBki4IihImvU1/lX3KpvG1rz2evqohLuKzEx+KEUtMFzvTD+NOcYBbKvdy10RRVotBS9z/F7yy4iKOFF/EtcoB6j+gFnI++MSPD9f2Pw3bGCkudq0p/l7/+je6kVu2jLi57qKguCNxpHjZSTykokZ6cNCOHyYWczIwgy+88OJ4omvnfxmUPs64ESzpgqAoYcRtii+EXWxxn54uLv6YYHzwUIyYOD1xnOldxJ3igGCp0MtdE0VZbYNmX6+mkXQj3SubWDTnAPUfUAuJDz57S5P9G398iJ3x2qYjxaXp9DY6jx175uUvf8VQcTUQTwka6cHxAHF8sPhVqThe7AxOMDn7LXpS8ZIuCIoSRtymGBx7VnviiRMPPPDV9FlNXMRtig/9JX2iFTtzHsad4gC3VO7lromirBZfWTGSTV/Z/JFiZ5k5oK7+Gx4eDrsK5I9M6MhGVmmVx7DK6VU3MTFx9tlnh71JmRHLHFYVRR98Z5/9X6699r+Zhvlr2rbTfXzs3fsOd5nEvyPK3aSSP1JcxI9dN93fZv5Iv/5zA8RDij8ubSM9OGjHD8VFnO7/d787fvEetXgjwdr4OONGsKQLgqKEEbcpvhDihVhxuri4MfHvf4PpYsReKd3/Jx6nXYqe0Qnv/j/xRRQXcaTml7smirJaTAwxkuIrKy7iSFU5ENZ/Bw4cGF5xxhln2IbpCca054UXXrAbNI1wnSf/pJs/MmHPnj1hV7ZOxSo4BlPN2K0dPXrU7y+ymqeweu5lHW72yiYMr+6ljKenky0eL1rbwHZc0QffE0+cOPPMM83nhflr2rbTfUj5FwXFLynyR4qL/zkVT296SVIcKZYd4iHFG7eN9OCg7canf/8hbtNf3DYTI4MdiSPdduJGsKQLgqKEEbcpvhD+GNcW72oXF/dVl//v/4nTi+IQ/1ZXPE5/lbhN//e/bnwwPVjEQ/IXNz0xMnFIHX+5a6Ioq8XEECMpvgri0nSk235iZFdzIKz/nMxzZD63wfSW02t9+SO7rbNH4rY2NTUlli+q+M+97Ti0PdGKp6eTTezseUUffP5i/uPy8svfFPdXa/E/+4o+BxUu5R9quiDISRjNS/nxbGkp//DSL3dNqMrqNc+B3Prv2WefHT7NtN2Yo0eP2k5XqRRdEHJXU1xDHDl8er+fWmHbq9y7OLLR1leHouEXx6roGNwAvx0fgzhyOPspiNPzA9gqf3fulW11d/5G7MN4pBhVN95/2Egmm92y7XSXWt0Buy2LgY2PqkJUffB1dfH/Ezn4MkXbIv7XfGlLuiCoesKUf3Jtumh+uWtizbNaVQ7k1n/+Q//0OTU1FXTu3r3bNowdO3YEa/223+lm2c6HHnrI/y5VnO7v3e1I3Lt4nOLD9gQbEY/B/zIx+GIxcUjik02MDx6Koc7ZZj5xYv7urrnmmuHTX6CbdmKkGFUrJwJuitmyK+zi+IhzLfGoKmTNP/hYtC3pgoCE6bEl/XLXRM2zupP1n98p3iwljnTtoinHjh1zpYDrjNtip08cma692pPYiFtlrz+ZxsLCQvrylfi88p/CnhW2vW7dOttodZv5xOfedHeJpxw8FA8sMT54mN57ohG0g4fBqkqo+QcfS7ykCwISpseW9MtdEzXP6jbrP/dNmSWOsbZt2+aGuQst/nTXKX6jZ0cG9V/Tvbu2uHd/ZCCxKl+wEfEYLFOQjY6O+j2NaLr/0LUTxxmvimc1DWDbxI003V0wK/3QSkQ1GC8mmz/GtRONoB08DFZVQs0/+FjiJV0QkDA9tqRf7pqoeVa3Wf+JJ7ymnTmnVWvnzp22Ydcmvv8VO9M7EqdbiVX5ErFybVvsnjx58rHHHlvl9b9AvCqeFY8p6myVvxF3rU7csvi8ch7Gnenx4sh0Z9wI2sFD8QiVq/kHH0u8pAsCEqbHlvTLXRM1z+o26z//jqvgXr1A+kYrvy3e0eXW+r//EPfu34/lBjTdeyCxKl9RrPxjaOP+vynv97+J4xRXjY6OXnnlle6hGEBxYqvEV7bp7oqesvjQEqNqJabHhyQmRtwI2sFD8QiVu+mmWn/wsQTLM8+EJ4MACdNLS9OXuybqnNVxDqzzH/iCM5z4Xa14FhR/aCmeO5tu88CBAw899FBiZPx7zKZ7d8RfHrQn2H7TY3Bt8Rjc15f+v/8X7MISp1vBF81FAXQD2iZuWez0dxfs2o53TyFYa4lRFSMg7kicXtTI32yF3H77R90/78fC8rnPffHLX/5ymCUeEqaXlqYvd03UOavjHFjnPwDQq773veXbbpu5+eY7brzxNpY6LzfddPstt9x+9OijYYq8GAnTG0vmy10T9czqohxQWv99/etfD7tAWAoQFuQjW+AjH1AabcmmtP7jTgURYRERFuQjW+AjH1AabclG/VclhEVEWJCPbIGPfEBptCUb9V+VEBYRYUE+sgU+8gGl0ZZs1H9VQlhEhAX5yBb4yAeURluyKa3/tN0mqQRhEREW5CNb4CMfUBptyaa0/gMAAECXUP8BAADUC/UfAABAvVD/AQAA1IvS+k/bbZJKEBYRYUE+sgU+8gGl0ZZsSus/bT+TVoKwiAgL8pEt8JEPKI22ZKP+qxLCIiIsyEe2wEc+oDTako36r0oIi4iwIB/ZAh/5gNJoSzbqvyohLCLCgnxkC3zkA0qjLdmU1n/abpNUgrCICAvykS3wkQ8ojbZkU1r/AQAAoEuo/9DE2NhY2AUAAKqsYvXf4ODg8Ipdu3adOnUqXN1ROXXP0tKSPR7DtMPVXZZzhG0INtulvQAAgLVSsfrPr0W6XZfkbL/M44l1cI+XXnqpa1P/AQDQ25TWf0W3SYr11vHjx91FONN2a2dnZ4Mrc+LlOnGk7XftIuLxiJ1FB5k50grCIh6hOF18ji4apjExMeG2ENd/8VxVirIFiJEt8JEPKI22ZFNa/xX9TNovTSYnJ+NO1x4cHJyenrbt8fHxYK3f9kfazpmZGVPrrF+/3vw1bTclJm6wG51WEJZgbdyZeI5iQ3zi4lxVirIFiJEt8JEPKI22ZKtY/Wfv/zvnnHMuueQS1ylWPO11upoy6C/SdIOd6rTarv/SncF2Eg/FPa65omwBYmQLfOQDSqMt2SpW/9n644YbbnCX9Brej0KM0dFRf2TQbtrpK+r3Nd2ga+cfpDjSyqn/xOnijlyx61e9jWiz4lxVirIFiJEt8JEPKI22ZKtk/ec3grbYmZ4lTm8U9/vGTt8bZ/6KGxQ7nfyRVk7917TTtZ9//vlzzjlnOLqrL9iCOFeVomwBYmQLfOQDSqMt2ZTWf0W3Sbr649SpU3v37rVt/1qg+x1D/v1/RTVNUb9v48aN+/fvNw3z17Rtp5toDsAchm2LB5k/0sr5/Yc4XXzirv7buXOnW+sPiB+Ke1xzRdmC+lhcXDx06NDy8nK4IkK2wEc+oDTakk1p/VdErEXyf9VbNNI2AnZw+vcf5qxz1llnmWHmr2nbTrcX/6KguOv8kSL/q95t27bZTnG6GDf/a1+/HTxxcS6gzdzc3Pbt2/ft2zc/Px+uAwC8WMXqv3zlVyo7d+6cmpoKexWjsEOPefjhhzds2DAwMPDa17724MGDOZcDAaCeqP/qy10pDL7/BarrwQcfHBoaGhkZef3rX79161YuBwKAqGfrPwD1ZEvAvr6+wcHByy677OKLL+ZyIAAElNZ/fQDQISMjI/bvkSNHtN2CjbVFPqA02pJNaf2n7WfSShAWEWGBb25ubnR09FWvepWr/7Zs2fK+973vu9/9boNswYuRDyiNtmSj/qsSwiIiLHBs8Xfuueeasq+/v//yyy9/4IEH/AFkC3zkA0qjLdmo/6qEsIgICyxT/A0PD5uyz7/gFyBb4CMfUBptyUb9VyWERURY0Dh95e+KK64ILvgFyBb4yAeURluyKa3/tN0mqQRhEREW8P//QHvIB5RGW7Iprf8AAADQJdR/AAAA9UL9BwAAUC/UfwAAAPWitP7TdpukEoRFRFiQj2yBj3xAabQlm9L6T9vPpJUgLCLCgnxkC3zkA0qjLdmo/6qEsIgIC/KRLfCRDyiNtmSj/qsSwiIiLMhHtsBHPqA02pKN+q9KCIuIsCAf2QIf+YDSaEs2pfWfttsklSAsopLDMjY2FnbVzNLS0vDw8MzMTLiiyzoS+ZKzBcqRDyiNtmRTWv8BJfDrifzaounIpgOK2LrKMu1wdZeZes7sd/369U1ru7afYD5xF5OTk2EXAKAt1H+oL231X3vH01k5+80Zs0ol7AIA6oz6D/Ul1lumMTs7G1yEc1fmzCo3suhyXVC7HD9+3A0zbX9VoOh44k5xm/kjE4KNxKEIxjQK4iDOHRwcNA+PHTvmOsW5drprW1NTU2a6eyhOFHcKAIhR/6G+xILJFBnT09O2PT4+HjTMKleFTExM2IYbIH6FKu5FJI7sRmeCP8YPhe3Pf4LxXNfw/2bG0BJ35LfFnQIAYkrrP223SSpBWERth0WsIfI7fYkBiVUBcWQ3OhOKxhe1g4fift19e7bT/+sTt+MrGiDuVNxCYxXZgp5EPqA02pJNaf2n7WfSShAWUdthEcuF/M4dO3ac/gZy2P9qMqg87Jee1ujoqL8qIO5F7BS3mT8yQdxIoh08FA/bsZ3+38wYxp1iW+wMtJ0t6EnkA0qjLdmo/6qEsIjaDotYLqyyM2jHDxPGTt++5t9lKG5Z3Gb+yARxI4l28DC9X9sZ//XXxm2xU2yLnYG2swU9iXxAabQlG/VflRAWUdOwLC8vHzp0aHFxMegXy4X8+//EzkZUebhhjRff7hbbuHHj/v37TcP8NW3b6bYm7rrhbTN/ZIIYk0Q7eCiWYo7t9P9mxjDuFNtiZ6BptqBWyAeURluyUf9VCWERJcIyPz+/b9++7du3z83Nheta+Q1p+ve/fqfrd79dEPciMhXqWWedZYaZv65aFfcibjN/pCj+4UVRORWUVuIuxPLLdvp/xWN2/S6G8bE13al4AI1ktqCGyAeURluyKa3/tN0mqQRhEcVhWV5ePnjw4Pj4+MDAwNDQ0JEjR4IBCUV1Q8l27tw5NTUV9mLV4mxBnZEPKI22ZFNa/wHtsRf8tmzZ8upXv3rTpk0bNmxoqfhrqKn/AADoHuo/9AJ3we/CCy/8+Z//+b4VbRR/AADUAfUfKs8UeVu3bjUF36ZNm2zlBxQJswcAaon6D71geXn55ptv3rZtW39/vz3NDw8Pm4fizz4AAKg5pfWfttsklSAsIj8sjzzyyJVXXjkwMGBKwI0bN1ICIsCbCD7yAaXRlmxK6z9tP5NWgrCI4rD4lwOHh4cpAeHE2YI6Ix9QGm3JRv1XJYRFlAjLI4888ou/+Iujo6OUgLAS2YIaIh9QGm3JRv1XJYRF1DQsRf//D9RQ02xBrZAPKI22ZKP+qxLCIiIsyEe2wEc+oDTakk1p/aftNkklCIuIsCAf2QIf+YDSaEs2pfUfAAAAuoT6DwAAoF6o/wAAAOqF+g8AAKBelNZ/2m6TVIKwiAgL8pEt8JEPKI22ZFNa/2n7mbQShEVEWJCPbIGPfEBptCUb9V+VEBYRYUE+sgU+8gGl0ZZs1H9VQlhEhAX5Ws2WsbGxsKsVq5y+hrpx5C1tc2pqanBwMOxd0dJ20lrNB6Bt2pKN+q9KCIuIsCBfIluWlpaGTzNt27nKUiN/urj3chw+fNjud/369bZhevKPPF+r2ywaX9TfhkQ+AJ2lLdmU1n/abpNUgrCICAvyJbLFrypce5WlRv50ce8l6/YxtLrNovFF/W1I5APQWdqSTWn9BwAl86uKyclJ1zk7Oxtcljt+/LjtMUzbdvoX8BYWFtx023jve9/rOkVi7SV2invPH5kQbCR+4mKnuBfxcqY4XRzpxru2G2a20MH6D6gt6j8A+A9iVTE4ODg9PW3b6bJsfHzcdU5MTPhr77///sOHD7u1InGb3ehM8MeIT1zsFPfid7po5E+PH7rwmi0U3RcIIB/1HwD8B7FCEquTpp2O6Tx69OjMzEy4ItJ0m53qTCgaL27Qv0TqOl3brfWJI8XO+GFRG0B7qP8A4D+IVYVYdgwODrqvLEdHR+ORjh3Z2fqv6d7TIxPEjfjtxHMM9iJ+q9t0m8H2i1aJhwGgJUrrP223SSpBWESEBfkS2eJXFemLW2L9kejM/P7X3hvn39/W3t7TIxPEjfhtcYNip2/Pnj220XSbwaaKVjXdY75EPgCdpS3ZlNZ/2n4mrQRhEREW5Etki1hhiJ3irX5ip5vS9PcfGzdu3L9/v2mYv6ZtO910/6a39I6ajkwQn6zfFgsvcS/+7tyAptsMtu8/bOn+v8XFxUOHDi0vL4crIol8ADpLW7JR/1UJYRERFuRLZEv+V5biyPTvfxvNKjBTspx11llmrvlr2rZT/NFreu9NRyaIT9Zvi/WfuBexU9ymOHJmZmb49L9HaL89F59gwtzc3Ojo6L59++bn58N1nkQ+AJ2lLdmo/6qEsIgIC/JVIlt27tw5NTUV9qJFjz766NDQ0MDAwGte85qDBw+KlwMrkQ/oDdqSjfqvSgiLiLAgH9lSK6YE3Lhx4+Dg4CWXXHLuuefGlwPJB5RGW7Iprf+03SapBGERERbkI1vqxpaAfSu2b99+wQUX+JcDyQeURluyKa3/AKAbbB2AOhsYGDB/R0ZGjhw5EuYHUBvUfwCAnjU3N/eqV71qw4YNtvgbGho677zzZmZmxNsBgfqg/gMA9CZb/A0ODtrKb3JyUtt3cMBaof4DAPQgU/xt2rSpv7+fC35ATGn9x3+iiQiLiLAgH9lSE/bf/3vb296WfsXTa4EO0pZsSus/bT+TVoKwiAgL8pEtdcD//wMKaUs26r8qISwiwoJ8ZAt85ANKoy3ZqP+qhLCICAvykS3wkQ8ojbZko/6rEsIiIizIR7bARz6gNNqSTWn9p+02SSUIi4iwIB/ZAh/5gNJoSzal9R8AAAC6hPoPAACgXqj/AAAA6oX6DwAAoF6U1n/abpNUgrCICAvykS3wkQ8ojbZkU1r/afuZtBKERURYkI9sga+9fBgbGwu7irU0uCPK32MsOIapqanBwUG/J1Z02Dlzu6TokNrTXrJ1D/VflRAWEWFBPrIFvkQ+mJpj+LRt27b5qyYnJ/2Haekawl+bHplv9dtZWloyz9r8DVdki0PU9KgSAxKrihw+fNi+duvXr7cN0xMOaiZ+FquRSLY1Qf1XJYRFRFiQj2yBL5EPbdQcovR2+vr6rrjiCttOj8y3+u3YLax+O76mW0sMSKxqajVzOyuRbGuC+q9KCIuIsCAf2QJfIh+K6obg60gzbHZ21l5hchfM7PUzw6wq2o5lNnXdddedOnWq4e3x+PHjdrph2rbTbXPY25G496JO2wjaInvdy7/6JU4XD6kRhcjytyBOFA/brXJtMTgJOft1A/x28CzEuS1JJNuaUFr/abtNUgnCIiIsyEe2wJfIh0SR5K8yJcL09HTQPz4+bhtmVVwJ+ewU/6/f8NsTExOu021f3Lvf6UaK2xSJI8VO8ZCseBd+jzhRPGxL3HvQLtJ0v36ZG3zhW7Qvfzv5Esm2JpTWfwAArCH//r+FhQV/VVFZkK6WRHat/9dvBO2401/rahdxutgpEkdOrvAbgWCb8S7iHivnCItWFW3TVzTG9dsLe6ZhXuXEdUfxWVca9R8AAKGiuqFRXILklDIBu9b/23hx6Tk6Omo7d+zY4TrdNUVx4+LexU6Rv/fgm2731xIPyYp30XRi4gj9h2JwEpru11q3bl28NX/u6r//1Yb6DwCAUFzBOEWVShvFll379NNPv+td7xIrIUfcZv5In9jpFE237bgnbscPgx6xLXbGD+MtpxXNdW1b2J08efKxxx5LXP/z7dmzJ+yqIOo/AABCRef+RkEZ4bdbvf/PuOKKK/r6+mzbv/vN3WomblM8SPFGOv/yVeYhBW1jdHT0yiuvdA/FQ7LiA/N7xIniYVvi3EbefXjiXH+/mff/ifcOGouLi4cOHVpeXnY9VaG0/tN2m6QShEVEWJCPbIEvkQ9xBWPMzMwMn/4n5Uy7UVAtuWKr6e9/09OHm/2mWNz4WPEPad2AsMsjHpIVfEkqHlIcorhHnCgedmKuPyzBfwpF+3UDEs8isd+5uTkTlmuvvXZ+ft7vDySSbU0orf+0/UxaCcIiIizIR7bAV898SNd/aMPXvva1oaGh/v7+Xbt2HTx4ULwcqC3ZqP+qhLCICAvykS3w1ScfEpev0BGmBNy0aVNfX98FF1ywefPm+HKgtmSj/qsSwiIiLMhHtsBHPqCDXAlonHvuudu3b/cvB2pLNuq/KiEsIsKCfGQLfPZUDXTVyMjIkSNHtH34KK3/tN0mqQRhEREW5CNb4CMf0EFzc3Om1BsYGLBl38aNG3/u537unnvusdf/tCWb0voPAACgKlzxZ2zYsOFXfuVX0j8HXnPUfwAAAO0zxd/GjRv7+/v9C37KUf8BAAC0yf77f1dffbXyC34B6j8AAIB28P//6DBtt0kqQVhEhAX5yBb4yAeURluyKa3/tP1MWgnCIiIsyEe2wEc+oDTako36r0oIi4iwIB/ZAh/5gNJoSzbqvyohLCLCgnxkC3zkA0qjLdmo/6qEsIgIC/KRLfCRDyiNtmRTWv9pu01SCcIiIizIR7bARz6gNNqSTWn9BwAAgC6h/gMAAKgX6j8AAIB6of4DAACNsbEx/+HU1NTg4KDfEwumODlzu6TokBBQWv9pu01SCcIiIizIR7bA13Y+mOJmeMWuXbtOnToVrn6xciqSpaUlczzmb7gi2+TkZNDT9MgTAxKrihw+fNhGdf369bZhesJBzcTPQom2k61LlNZ/2n4mrQRhEREW5CNb4Gs7H/zipmmh03RAR9i9dHZfTbeWGJBY1dRq5qrVdrJ1CfVflRAWEWFBPrIFvrbzQaz/jh8/bq9aGaYdD4gfurZpzM7O2rnuGp7YWcRe9/Kvfok7spcJ422K39j6WxAnJo7Qn1sUmSI5+3UD/HbwLMS5a6XtZOsS6r8qISwiwoJ8ZAt8beeDX3O4kisuSmZmZoZPf5tp2kXDGitfKE9PT+d0isRtip0TExOuc3x83LUb0i78HnGif4SJrRW1izTdr1/mBl/4Fu3L386aaDvZuoT6r0oIi4iwIB/ZAl/b+WDv/zvnnHMuueQS11lUeQQVj7jK70wUlEXEkZMr/EYgcWBFPZZ42ImtFbWLFI1x/fbCnmksLCwkrjuKz3qttJ1sXaK0/tN2m6QShEVEWJCPbIGv7XywRcYNN9zgX/RyPwoxRkdHg8HiQ7GQcsSRIn/X/hegdpY/d8eOHeLIhrSLphMTR+g/LIpMkab7tdatWxdvzZ+r6vvftpOtS5TWfwAAqCXWbXH9ZCUKI3E7jjhSVDTStuOeuB0/DHrEttgZP4y3nFY017VtYXfy5MnHHnsscf3Pt2fPnrCr3qj/AACQLS8vHzp0aHFxMeh3RcapU6f27t1r2/61QP9us6LCaHp6WryQ5oiljygxcnR09Morr3QP3UH6e7fiXfg94sTM+/+KIlNEnOvvN/P+P/HeQVjUfwAAhObn59/97neb4mlubi5cV1BvFX3baPvd7z/csNnZWTc3rr2CTnGAkxgZfEkq7j3+nUrcI04ck37/m5jrD0vwn0LRft2AxLNodb+1Qv0HAMB/Wl5ePnjw4M6dO/v7+zds2CAWf0APUFr/abtNUgnCIiIsyEe2wOfng73gNzw8PDIy0tfXt3nzZoo/dJC2Dx+l9Z+2n0krQVhEhAX5yBb4TD64C36m7BsaGupbQfGHjtP24UP9VyWERURYkI9sgW/fvn1bt261NR/QVdo+fKj/qoSwiAgL8pEt8Nnrf/fff//Y2NjmzZvdqXrLli1c/0Nnafvwof6rEsIiIizIR7bA5+fD/Pz8r//6r29cQQmIjtP24aO0/tN2m6QShEVEWJCPbIEvzgd3ObC/v98UgpSA6JQ42daW0voPAIA1ZC8HFv37f0DVUf8BACAr+v9/AFVH/QcAAFAv1H8AAAD1orT+03abpBKERURYkI9sgY98QGm0JZvS+k/bz6SVICwiwoJ8ZAt85ANKoy3ZqP+qhLCICAvykS3wkQ8ojbZko/6rEsIiIizIR7bARz6gNNqSjfqvSgiLiLAgH9kCH/mA0mhLNqX1n7bbJJUgLCLCgnxkC3zkA0qjLdmU1n8a/O3f/u2+6rvjjjvuAgAg6cSJE+FZED2N+q+QKZ7WAQBQA/fcc094FkRPo/4rZOu/t771rXdU07vf/W5z/O95z3vuAQCgwOTkJPVfDVH/FbL1nymkvldNf/Znf2aO/5FHHgmfGAAAp911113UfzWktP7TcJtkB+u/j3/849ddd90DDzwQruim+tR/GrIFVUG2wEc+NKj/yqIt2ZTWfxp+Jt3B+u8d73jHT/7kT/qb+t3f/d1ul4Nt13+f+tSn7r777sOHD5v2Cy+8cPeKo0ePhuM6zex3YWEh7M0QZ0uwqZwt22dtffGLXwxXd0LOYTj333+/Ox7j2LFjLU1PyNyOecXNfuORdvqzzz5rDyweoFycLagz8qFB/VcWbclG/Veog/Wf8bM/+7P+poKH3dB2/Tc8PHzBBRd88IMfNG1zkBs2bLjssssuvvjibp/pzX7/9E//NOzNYLNlZmbmiSeesD3BpnK2bJ/1ZSuuu+66cHUn5ByG89a3vtUcyZlnnmmP6sEHH2xpekLmdu69916z93iknf7444/bw4sHKKfhswV6kA8N6r+yaEs26r9CbdR/zzzzzHWnfeYzn/FXlV//XXPNNeb4v/rVr4ZPrBm/PnBt13BXj1zj/e9//2/8xm/cfffde/bs+bu/+7vMMbG4LolnfWrF3d71SNPevXu3+Wue7Mc+9jHbGdd/v/3bv+3PisV7j5+Fuxpq/PCHP2xIRxj3uFluF/lXVYPXIngWcTQSe3dj4u3EY9xIt/f4WQQDqkLDZwv0IB8a1H9l0ZZs1H+F2qj/fud3fsdM2bjip37qp2ZnZ90qV/AdPnz45ptvftnLXvbmN7/ZNL7zne/8n/mdc+2115ojae86lniCTzTOPPNMs6/LLrvM/M0fE4uLiXiWGfPSl77Uvx7pjzHVz3e/+10z0kR7//798/PzbsvBrJgZY6b86Yp/+7d/Mz1mI+985zuff/55t/c/+qM/2rZtm9nOueee++CDDzakI4x77KwNGzaYDdqe/KuqwWsRPIu4J957vK94Vjwm3nv8LIIBVaHhswV6kA8N6r+yaEs2pfWfhtsk26j/tmzZ8rGPfcy2iy74XX/99a94xSte8pKXmFO1aXz72992YzplNcVfI6o5XOGVaNjKyVUGOWNicTERzzI9b3jDG/zBZtXExIRp24rnr//6r82qM844w/Rfc801bjvBrJhZZaYMr3jhhRdMjyl3zDZ/+Zd/2fz9i7/4CzvGTv/iF7949dVX2574COMe0/jUpz5ljsods6ksTaVlNvK1r33NO4qQf8DxsxB7gr3H+xJnBQ23R3/vwbOIx1eChs8W6EE+NKj/yqIt2ZTWfxq0Uf/dfvvtply4ecXLXvYysf4TH3bQKou/hnTWb9pwldNDDz2UOSbmBvs9Tbdsapp1K9dcTbX3gx/8wE0U65h4F4646u///u/Nxu+99177MB4jHmHcE+zdFKlmzFVXXfWBD3zg6aef9jcY8PcYb8c19uzZ4yrUYO/xvuLpccNK7z0eD6CKqP/qifqvUBv130te8hIz5RUrTDtR8HWp/lt98deITvAf+tCHzMPg9L+0tDQwMBAUBKbg+M53vpM5JhYXE/GsuAr51re+ZZ7y5z73OfPQbTnYVDwrFq964IEH3v/+9//Mz/zMrl27nn/+eX/MiRMn3LW0oiMMehYWFtw1ObvK9Ntrlv9nlxH/qOJnER9zvPd4X/H0uBFszbX9ZxGPB1BF1H/1RP1XqI36z1V1n/nMZ8q//teR4q8RnfXXrfiJn/gJ22lKultuueWd73ynqycuvfTSj370o48//vjo6Ki95pQzJmb2ZT6GHl/xj//4jw1pVlypHDhwwOzFHuf9999vN2UPwF1ai2fF4r2fccYZZptHjx6Nn4XZ6dvf/na/xx1hUc9v/dZvuW9O3ZjNmzcXRcOKKzCx4RTt3d9XPN2Gy4x56Utfanv+9V//1Tw0/SYmNozxs/C3AKC6qP/qifqvUBv1nzlfXnDBBb//+7//khV27sMPP2x6fvqnf/qXfumXTGNxcdF0mocjIyPu4ep1qvhrrJzU3Y8n7NU147zzzrNnetfjzv2ux+09Z0zM1nDWZZdd1pBmJWoXM+yzn/2sHWYnTk5OFs2KxXuPZ7njMU6ePOn3xM897om3k4iG5R9wfDzx04m3HPfE0z//+c/bMbt27frud79rev7yL//S9qw7HcbgWbjf2RTFE0BVUP/Vk9L6T8Ntkm3Uf08++aQ9R27fvt1d4TPn3f88ka4w51F/pH24Sh0s/ozdu3ebc7z78YTf6fco4WoX4w/+4A/C1egO+zub4eK7OdXS8NkCPciHBvVfWbQlm9L6T8PPpNuo/9ZEZ4u/KtKQLagKsgU+8qFB/VcWbclG/VfI1n/vfve7/0wx+48817n4a+jIFlQF2QIf+dCg/iuLtmSj/itk6z/9al78NXRkC6qCbIGPfGhQ/5VFW7JR/xW64447zFviPe95zyNqXHvttUFPG/97t96jIVtQFWQLfORDg/qvLNqSTWn9p+E2SYVvCQ1hUYiwIB/ZAh/50FB5sutJ2pJNaf2nAW8JAEDP42RXT9R/hXhLAAB6Hie7eqL+K8RbAgDQ8zjZ1RP1XyHeEgCAnsfJrp6U1n8abpNU+JboeFjGxsbCri7rxh6LwhLsa2lpaXh4eGZmxu/s7PF0dmvohqJsQT2RDw2VJ7uepC3ZlNZ/Gn4mrfAt0V5YBgcH7f+qa3Z2Nljl/g+5HZFT/eSMsfyR6VkmLOKA4NnljMnX2a2hNO29idCryIeGypNdT9KWbNR/hRS+JdoLi6tUpqenl5aWXryyk8SSKJAzxurr67viiitsOz2rqP4L5IzJ19mtoTTtvYnQq8iHhsqTXU/SlmzUf4UUviXaC0vRhbSpqanBwUH30H49arky0YyfnZ0NOsWRdrBrN148bGFhwY2JNygyx3bdddedOnWq4W1Z3LVY/wXPrhEdXiMaIx6wuMdGi1tLxxNlau9NhF5FPjRUnux6krZko/4rpPAt0V5Yiuq/4KHfnpiYsA1T0ExPT9v2+Ph4sNZ1zszMmIJm/fr1w94Ndm58o2CDcQnls2v9v37Dtc3uzj777GDX/gA7Jj68YEyj4IAzn6wVH17Qzn/66JL23kToVeRDQ+XJridpSzal9Z+G2yQVviXaC4tYiMQPxXvXEnPjzsTGxU5xgGPX+n/9ht82YRE31dnjaWQMLhqQPn6Uqb03EXoV+dBQebLrSdqSTWn9p0HPvCUSNYf/sOj7SjfAtXfs2OFG+t94JjYudooDHLvW/+s3Eu2izqZjxAGZTzbuFNtiJwCsoZ452aEl1H+FeuYtkag5ikqQPXv22IY4V+wM2vHDuFMc4Ni1Tz/99Lve9S5XeBVNFzfVkeMpGtDeYLETANZQz5zs0BLqv0JVfEssLy8fOnRocXHR73R1Rvz7X78EiW90axTc/+caZlXikph4O11+AeTWXnHFFX19fUFnol3U2XSMeMCZTzbuFNtiJwCsoSqe7LB61H+FqvWWeOSRR66++urt27fPzc0Fq8R//y/+EUPR97/x71XdSLPKL2Jsv/tJhPhz2vwCSBwpHqTrd7uOn10j2l08RjzgzCeb3lr6+3QAWEPVOtmhU5TWfxpuk1T4lojDsry8fNNNN23btq2/v3/z5s1x8bdKlahR4rAARcgW+MiHhsqTXU/SlmxK6z8NP5NW+Jbww/LII49cccUVAwMDfX19F1544fnnn9/x4q9RkfpPQ7agKsgW+MiHhsqTXU/SlmzUf4UUviVMWPwLfn0rfuEXfqFLxV9VaMgWVAXZAh/50FB5sutJ2pKN+q+QwrfEvn37hoeHbdkHAFglDeeaNafwZNeTtCUb9V8hhW8Je/3vvvvuu/DCC10hODIyMjo6yvU/IAfZAh/50FB5sutJ2pJNaf2n4TZJhW8JPyzz8/O/9mu/tnHjxg0bNmzevLnOJaCGbEFVkC3wkQ8NlSe7nqQt2ZTWfxpU4i3hLgf29/cPDw/XtgQEALSnEic7dBz1X6FqvSXm5+enp6fFf/8PAIAi1TrZoVOo/wpV8S0h/v8/AAAoUsWTHVaP+q8QbwkAQM/jZFdPSus/DbdJKnxLaAiLQoQF+cgW+MiHhsqTXU/SlmxK6z8NP5NW+JbQEBaFCAvykS3wkQ8NlSe7nqQt2aj/Cil8S2gIi0KEBfnIFvjIh4bKk11P0pZs1H+FFL4lNIRFIcKCfGQLfORDQ+XJridpSzbqv0IK3xIawqIQYUE+sgU+8qGh8mTXk7Qlm9L6T8NtkgrfEhrCohBhQT6yBT7yoaHyZNeTtCWb0vpPA94SAICex8munqj/CvGWAAD0PE529UT9V4i3RDeMjY2FXV1W/h4BoEI42dUT9V+har0llpaWhoeHzd9wRafllFODg4PDK2ZnZ4NVk5OTQc9q5BxMzhgAqK1qnezQKUrrPw23SSp8SyTCYqucEmqdnF24MdPT010tSe2OEmFp5B0w6iOdLagb8qGh8mTXk7Qlm9L6T8PPpBW+JRJhsdfV/Ktr9oqgtbCwkOg8fvy46zRt22nKptnZWdvp13A55ZQ/xm9PTU0NDg66h/7BuF2I+xVH2sENLyzisxM3iNpKvIlQQ+RDQ+XJridpSzbqv0IK3xJFYRHrrfHxcdc5MTGR6BSnm0Jtenratu2smZkZU0KtX7/e/DVtNyUmbjB+6LfdwcT79de6Tv9g3vKWtwTjGwUbzCle0duK3kSoJ/KhofJk15O0JRv1XyGFb4misIhFlVjrNO0Upxe1iyTG+w/FewETc+NO23ZhyRyPOit6E6GeyIeGypNdT9KWbNR/hRS+JYrC4n5vYbgvWMVaR+z0p4+OjtrOorJJ3EIgMd5/KH6rK87dsWOHG+l/g0z9h1YVvYlQT+RDQ+XJridpSzal9Z+G2yQVviWKwiKWOGKt015nUbtIYnzR9D179tiGOFfsdG0XFnHj8XjUWdGbCPVEPjRUnux6krZkU1r/aVCht4RY4og3w+V3ivfhNfJKKDcm/v2vPz2+q69RsF/XMKvi63+O+ETE4ADoYYuLi4cOHVpeXg5XQFKhkx06iPqvUIXeEmKJI/4Ytmln+ne4bnD69x/iv/8X/3wkf79upFnlP9ngYMRnJwYHQG+bm5sbHR3du3fvX/3VX4Xr8GIVOtmhg6j/CtX8LbFWpdJa7RdAjzEl4KZNm/r7+88///w777yTy4FFan6yqy3qv0I1f0usVR22VvsF0HtMCfiqV71qcHDQVIFDQ0Nve9vbuBwYq/nJrraU1n8abpNU+JbQEBaFCAvykS11Y0tAU/z1rTAN/3Ig+dBQebLrSdqSTWn9p+Fn0grfEvbzCwDQtv7+fvN369atR44c0XCuWXMKT3Y9SVuyUf8VUviW0BAWhQgL8pEtdfPoo49u3LjRVn7btm07//zzX/3qVx88eNBe/yMfGipPdj1JW7JR/xVS+JbQEBaFCAvykS21You/gYGBiy666Nxzz/3N3/zN+fl5fwD50FB5sutJ2pKN+q+QwreEhrAoRFiQj2ypD1P8DQ0NmeLPv+AXIB8aKk92PUlbsimt/zTcJqnwLaEhLAoRFuQjW2rC/vt/8QW/APnQUHmy60nakk1p/acBbwkAqCL+/x8t4WRXT9R/hXhLAAB6Hie7eqL+K8RbAgDQ8zjZ1RP1XyHeEgCAnsfJrp6U1n8abpNU+JbQEBaFCAvykS3wkQ8NlSe7nqQt2ZTWfxp+Jq3wLaEhLAoRFuQjW+AjHxoqT3Y9SVuyUf8VUviW0BAWhQgL8pEt8JEPDZUnu56kLdmo/wopfEtoCItChAX5yBb4yIeGypNdT9KWbNR/hRS+JTSERSHCgnxkC3zkQ0Plya4naUs2pfWfhtskFb4lNIRFIcKCfGQLfORDQ+XJridpSzal9Z8GvCUArNLY2FjYpUY5x1bOXrAanOzqifqvEG8JAI5fx+TXNE1HNh0gOnz48PCK9evX24bpCQc1Mzk5GXZFlpaWzMbN33BFtpy9dFx7Ua0tTnb1RP1XiLcEAEdV/eescnpTdvvd2Mull14adnVONw64h3Gyqyfqv0K8JQA4Yv1nGrOzs/YKnLtIZq+ZGWaVG+k6g8tpQaVy/PhxN8y0/VUif7q4C/GwjampqcHBQfewiL1651/DE/cidjaivbhhpjExMWE7xRiaWebhsWPHXKcYGXGu7XdtNMXJrp6U1n8abpNU+JbQEBaFCAvytZ0tYiFlypTp6WnbHh8fDxpmlat+XLnjBszMzAyf/gLXtO0qcS8J/ph4F40Xl27BV7FNty8ejLhHsdNquhE/hsGA+G8wLJ4rRjWh7XzoJQpPdj1JW7Iprf80/Exa4VtCQ1gUIizI13a2iPVHfqcvMSCxSlQ0xvXbS26msbCw4F8h88cUEQ9GvJ9P7LTEjYidfts24r/isHQ7re186CUKT3Y9SVuyUf8VUviW0BAWhQgL8rWdLWJ5kd+5Y8cO9/Wl/5VoUKnY7z2t0dFRf5XIn160C8N8lMVba1ok+QfjNih+1St2Wv5eXJno14tiuGzD/ytGRpwbtNPazodeovBk15O0JRv1XyGFbwkNYVGIsCBf29kilher7Aza8cOmijbl2rYyO3ny5GOPPZaozETiBn179uwJu6JOf+Lzzz9/zjnnBDWiuBfbiP8GxLlBO63tfOglCk92PUlbslH/FVL4ltAQFoUIC/I1zZbl5eVDhw4tLi4G/WJ5kX//n9jZiCoVN6wR3Ugn8qeLu+j4/X/iXYZip+VvxNV/O3fuFAe4dlz5iZER5wbttKb5UAcKT3Y9SVuyKa3/NNwmqfAtoSEsChEW5Etky6OPPnrVVVeNjo7Ozc2F6wq+4hyTfn/qRoq///U7Xb/7pYK4l4R4U8EuxKoo80cS4lzxCMXOeC9iMSruxa/87F9xF+LcRhTVhEQ+1IfCk11P0pZsSus/DXhLAHWwvLx84MABU/b19/dv2rRJLP6K+DUHmioq17C2ONnVE/VfId4SQG979NFHJyYmBgcH+/r6NmzYsG3btpaKvwZFTIvcNTz/+1+sOU529UT9V4i3BNCT3AW/gYGBvhWmImmj+AN6Aye7eqL+K8RbAug9R44c2bp1q6n5hoaGbPGHOgvzo5Y42dWT0vpPw22SCt8SGsKiEGFBPpMty8vLBw8e3L17944dOy666CJbB2zYsOGRRx4JR6PX8enRUHmy60nakk1p/afhZ9IK3xIawqIQYUE+P1vm5+f37du3ZcuWXbt2bVhBCVg3fHo0VJ7sepK2ZKP+K6TwLaEhLAoRFuSLs8VdDhwYGBgaGqIErJU4H2pI4cmuJ2lLNuq/QgrfEhrCohBhQb5EttjLgUX//h96UiIf6kPhya4naUs26r9CCt8SGsKiEGFBvqbZUvT//0BPapoPdaDwZNeTtCWb0vpPw22SCt8SGsKiEGFBPrIFPvKhofJk15O0JZvS+k8D+5aYnJy8CwCAHmVOc9R/NUT9V+iulfoPAICeR/1XN9R/hU6cOHEPAAA1YE554VkQPY36DwAAoF6U1n/abpNUgrCICAvykS3wkQ8ojbZkU1r/afuZtBKERURYkI9sgY98QGm0JRv1X5UQFhFhQT6yBT7yAaXRlmzUf1VCWESEBfnIFvjIB5RGW7JR/1UJYRERFuQjW+AjH1AabcmmtP7TdpukEoRFRFiQj2yBj3xAabQlm9L6DwAAAF1C/QcAAFAv1H8AAAD1Qv0HAABQL0rrP223SSpBWESEBfnIFvjIB5RGW7Iprf+0/UxaCcIi6nZYxsbGwi60QlUAu50tqBbyAaXRlmzUf1VCWESJsPiVR9tVyOTkpP+w7e2IlpaWhk8z7XB1l3X2uTjBZru0l/YksgU1RD6gNNqSjfqvSgiLKBGWjtR/gU5tx+rGEebr4B4vvfRS16b+Q1WQDyiNtmSj/qsSwiJKhKWvr++KK64wDfPXtG2neMnN1Cizs7PxdbipqanBwUH3sBFVMy1tLSbWf2Ln8ePH3Y5Mu9WRIrEyE6eLz8g9d9OYmJhwW4jrv8Rcv7MEiWxBDZEPKI22ZFNa/2m7TVIJwiJKhMWUbtddd51pvOtd73JlnFgzmbXT09PxAP/hzMyMKVbWr19v/pp2sNZvJ7YWEKd3o1MkrhWni88oboghSs81/Nqx2xLZghoiH1AabcmmtP4DOsIWGevWrRsdHRUrj3Rnqw/FrQW3DwaaTu9Up0hcK05PdwbbSTx07XRYAABdRf2HXmarDVP8XXnllWKxku5s9aG4tbSm0117cHDQfWFqnlGrI0XicYrTxR25Gi79Exlx7lp9/wsAaFD/obeJlUd+Z6sPxa2ljZ2+N878FaeLnU7+SJE4smmnaz///PPnnHNOXMDlhMi3Z8+esAsA0E3Uf+hlYuWR39nqQ3FraRs3bty/f79pmL+mbTvd9OnpaXfb4vj4uG00vBvm8keKxOMUp4tP09V/O3fudGv9AfFD1/YPzN9jexYXFw8dOrS8vByuAABIlNZ/2m6TVIKwiBJhESsP8ZtHcaT4awY7PXiY2FqaKVzOOussM9f8NW3b6bbpXxQUd5Q/UuR/1btt2zbbKU4X4+N/7eu3gxCJc8W9rMbc3Nzo6KgpKx988MFwnSeRLagh8gGl0ZZsSus/bT+TVoKwiHomLDt37pyamgp7FRMLuzVkSkBTTfb392/duvX666//3ve+F47ooWxBR5APKI22ZKP+qxLCIiIsa8Vdwwu+/11D9irg5s2b+/r6TCH4hje8IbgcSLbARz6gNNqSjfqvSgiLiLDAZ0vArVu39q0ILgeSLfCRDyiNtmSj/qsSwiKyp3mgyJYtW8zfkZGRI0eO8CaCj3xAabQlm9L6T9ttkkoQFhFhge+hhx4aGhrqW7nyt3v37osvvnh8fPzgwYP218FkC3zkA0qjLdmU1n8A0AZb/G3duvV1r3ud+btv3775+flwEADUHvUfgB7x8MMPb9iwYWBgwL/gBwCIUf8B6AVzc3Pbt2/ngh8A5KD+A1B5/P8/AKAlSus/bbdJKkFYRIQF+cgW+MgHlEZbsimt/7T9TFoJwiIiLMhHtsBHPqA02pKN+q9KCIuIsCAf2QIf+YDSaEs26r8qISwiwoJ8ZAt85ANKoy3ZqP+qhLCICAvykS3wkQ8ojbZkU1r/abtNUgnCIiIsyEe2wEc+oDTakk1p/QcAAIAuof4DAACoF+o/1NTY2FjY1Wkl7CLQkT12ZCMAAM2o/9DLglLGfzg5Oemtad/g4ODwitnZ2WBVp3Zh5ZRlOWMsf2QwK+ew83cEAFBIaf2n7TZJJQiLKBGWRP3XKW6b09PTS0tLL17ZSTkHnzPGStR/OdqYokQiW1BD5ANKoy3ZlNZ/2n4mrQRhESXCElzKcg+npqYGBwdd//Hjx+01PMO0bWdmhVQ0LNiFKQ3dLlyZaMbPzs4GneJIO9i1Gy8etrCw4MbEGxSt5rAbyYNJP7ui/ZYmkS2oIfIBpdGWbNR/VUJYROmwuCIjqDaKCpFgvP9XJM6NH/rtiYkJ2zCV1vT0tG2Pj48Ha13nzMyMKaHWr19v/pp2ML5RsMHEMTeKjy14GB+2eDDiFPFgxJFlSmcL6oZ8QGm0JRv1X5UQFlE6LGLlETwU27bh/xWJc+OH4k11iblxZ2LjYqc4wHG3LRr+Bb9GxmE3oo2L+xW3I44sUzpbUDfkA0qjLdmo/6qEsIjSYXn66acnV5iG3+8XH34xNDo66g/w/4oSBY3/sOgbUjfAtXfs2OFG+pVZYuNipzjASYxsetjBmOCha4sHII4sUzpbUDfkA0qjLdmU1n/abpNUgrCImoZlbEXcKbaDTv+vKLGdoll79uyxDXGu2Bm044dxpzjASYwsmugOuxGNEbdWtB2n6YBuaJotqBXyAaXRlmxK6z+gg8QvMf3iQ7yXzg7w/4rcqvj3v/6s+K6+RsH9f65hViWu/yWOOW7HEiObHnYjOcW1xQPwLygG3zsDAEpD/YfeFxQi8S8YxG85beexY8f8zpj47/9l7mJM+oWsG2lW+Udu+91PLvwN+r//dePF8ssRR2YetusXD8Z/dm68qOkAoD2Li4uHDh1aXl4OVwA4jfoPWDM1L4Bq/vTRVXNzc6Ojo2984xu/9KUvhesAUP8Ba6iGBZB4pRDoBlMCbt68ub+/3/x9z3ves7i4GI4Aakxp/aftNkklCIuIsCAf2VIrpgTcvn37yMhIX1+fKQR3794dXA4kH1AabcmmtP7T9jNpJQiLiLAgH9lSN7YEPO+88/pO8y8Hkg8ojbZko/6rEsIich/rANDUBRdcYP6OjIwcOXKED1WURluyUf9VCWERERbkI1vq5itf+crg4KAp+DZt2vTmN795586dr33taw8ePGh/HUw+oDTako36r0oIi4iwIB/ZUiu2+LvgggtM5TcyMrJv3775+Xl/APmA0mhLNqX1n7bbJJUgLCLCgnxkS338+Z//+YYNGwYGBvwLfgHyAaXRlmxK6z8AANpmf/YRX/ADYFH/AQB6Cv//D6Ap6j8AAIB6of4DAACoF6X1n7bbJJUgLCLCgnxkC3zkA0qjLdmU1n/afiatBGERERbkI1vgIx9QGm3JRv1XJYRFRFiQj2yBj3xAabQlG/VflRAWEWFBPrIFPvIBpdGWbNR/VUJYRIQF+cgW+MgHlEZbsimt/7TdJqkEYRERFuQjW+AjH1AabcmmtP4DdBobGwu7uqbMfTWl6mAAAKtE/Yeedfjw4eEV69evtw3TEw5qUWYZ1JFdT05Ohl0vlnkwrRI32/RgAAAVQv2H3icWNO1pdVOtjm9Jlzbepc0CAPSg/kPv8wsa056dnbXX5JaWlmynadieos6FhQU33Tbe+973us4Ef9fiXoJjc+2pqanBwUH3UCQWauJexOcijmxImw0ORpyYH1gAwJpTWv9pu01SCcIiahoWv6Axdcz09HTQPzEx4QaMj48HjYY3wE65//77M7/P9Xct7sX/XjX4jjWuwwLiALGgFJ9LfDwzMzPDp7+zNm23tlGwWb8tBrbo6a+hptmCWiEfUBptyaa0/tP2M2klCIuoaVjEeqUR1VuWWLs4pvPo0aNBbZQgbqTh9dsrZKaxsLAQXCErmuuIA8QnK470ibN8RQPEXbi2GOG11TRbUCvkA0qjLdmo/6qEsIiahkUsTXw7duxwX1O6LzrFkWZtfG0swd+IuBdr3bp1o6Ojfk+j4AB84gDxyYoji45HHCxu1m+LnQq//22aLagV8gGl0ZZs1H9VQlhETcMiliY+cUBiZHvf/4ptWyGdPHnyscceK/n6nzgyaIudYlvs9O3ZsyfsWgtNswW1Qj6gNNqSjfqvSgiLqGlYmpYm7va46elpdyVMvGfOTW/j9x/iXtbw/j/xeBqtbNZvi53xLYZrrmm2oFbIB6zS4uLioUOHlpeXwxURbcmmtP7TdpukEoRF1DQsYmnic19Tzs7OugHib2b96Tk/aPDHi3sRjy3xOwyf/TLa2rZtm+0Uv3IVn4t4PK7f7Tc+GHEX4hMRR66tptmCWiEfsHpzc3Pbt2/ft2/f/Px8uM6jLdmU1n8AAACV8NBDD23YsGFgYOC1r33twYMHcy4HrjnqPwAAgFX5yle+Mjg4eP7557/pTW8aGRlpejlwzVH/AQAArJYtAfv6+jZu3GiqwJ07d2q+HEj9h8rrAwBAn/PPP9/8HRkZOXLkSHjqWmtK6z9tt0kqQVhEhAX5yBb4yAd0kP0hyHnnnefqv82bN7/3ve99/vnnG/qSTWn9p+1n0koQFhFhQT6yBT7yAZ1ii7+RkRFT9vX394+Pj//Jn/yJP0BbslH/VQlhEREW5CNb4CMf0BGm+Nu8ebMp+/wLfgFtyUb9VyWERURYkI9sgY98wOqZ4m90dPSNb3xjcMEvoC3ZqP+qhLCICAvykS3wkQ9YJf7/Hx2m7TZJJQiLiLAgH9kCH/mA0mhLNqX1HwAAALqE+g8AAKBeqP8AAADqhfoPAACgXpTWf9puk1SCsIgIC/KRLfCRDyiNtmRTWv9p+5m0EoRFRFiQj2yBj3xAabQlG/VflRAWEWFBPrIFPvIBpdGWbNR/VUJYRIQF+cgW+MgHlEZbslH/VUlnwzI2NhZ2VZB5Fp0NC3ob2QIf+YDSaEs2pfWfttsklSgKi1/J5Vd1TUc2HVCk7Ylp4mYnJyeLwgLEyBb4yAeURluyKa3/0JI6138AAKBV1H+9QKz/TGN2dnZ4xdLSku00DdtjVrmRrtMfabfg2sbx48fdMNP2VwXEQk3ci9+5sLAQdyaOx5iamhocHHQPxYliHAAAqDPqv14g1n+mMJqenrbt8fHxoGFWucppYmLCNtyAmZkZUy2tX7/e/DVtu0rci0hcK053x9PwDiPzeCxxs37bj4N4YAAA1A31Xy8Q6578Tl9iQGJVQFwrThdH+sRZvqIB4i7ELQAAUDdK6z9tt0kqURQWscTJ79yxY4f72tT/OjWolswqN2x0dNRfFRDLLHHX4sjM43GdLixNdyFuAbVS9CZCPZEPKI22ZFNa/2n7mbQSRWERS5xVdgbt+GGCOFLccv7IoO13urCIg8VO1FbRmwj1RD6gNNqSjfqvSorCIpY4+ff/iZ2NqFoS79UTiWWWeJDiNjOPx3VS/yFf0ZsI9UQ+YJUWFxcPHTq0vLwcrohoSzbqvyopCkv+717Tv//1O12/+72FuBeR/03xtm3bbKc4Pf373/TxuB+FnH322bZT3AX1H3xFbyLUE/mA1Zubm9u+ffu+ffvm5+fDdR5tyUb9VyUthaU+tU5LYUHNkS3wkQ/oiIcffnjDhg0DAwPj4+MHDx4ULwdqSzal9Z+22ySVaCks9an/WgoLao5sgY98QKeYEnBoaGjLli2ve93rtm7dGl8O1JZsSus/AACACrElYF9fX39//+7duy+66KLE5cA1R/1XJX0AAKAitmzZYv6OjIwcOXIkPKOvNeo/AACA1ZqbmxsdHbU1X9/KVUBT+V1//fVc/wMAAOhBtvgbHh42ld/AwMAb3vCGhx56KBykidL6T9ttkkoQFhFhQT6yBT7yAR1hij9T+aUv+GlLNqX1n7afSStBWESEBfnIFvjIB6yevfI3MTGRvuCnLdmo/6qEsIgIC/KRLfCRD1gl/v8fHaYtTEoQFhFhQT6yBT7yAaXRlmzUf1VCWESEBfnIFvjIB5RGW7Iprf+03SapBGERERbkI1vgIx9QGm3JprT+AwAAQJdQ/wEAANQL9R8AAEC9UP8BAADUi9L6T9ttkkoQFhFhQT6yBT7yAaXRlmxK6z9tP5NWgrCICAvykS3wkQ8ojbZko/6rEsIiIizIR7bAV3I+jI2NhV1qaD623lBysjVF/VclhEVEWJCPbIGv7Xzwq6X8yqnpyKYDRIcPHx5esX79etswPeGgZiYnJ8OuF1taWrIbN0zb9Wcec+awHtZ2snUJ9V+VEBYRYUE+sgW+tvNBVf3nrHJ6WtFTztxp5rAe1naydYnS+k/bbZJKEBYRYUE+sgW+tvNBLIBMY3Z2NrhC5i6bmVVuZOa1tOPHj7thpu2vEvnTxV2Ih21MTU0NDg66hyJ/vH+xMDhmcb+NaJh4JEVze0PbydYlSus/AADUEssXU0JNT0/b9vj4eNAwq1yNNTExYRtuwMzMzPDpL3BN264S95Lgj4l30Xhx3RZ84dt0+/EXxOIxx/sVh4lPrej40Q3UfwAAtKZp+ZLu9CUGJFaJisa4fnuBzTQWFhaCC2xFcx079+677w76ExMTxy+uiktMdA/1HwAArRHLl/zOHTt2uC86/S9egyLJrHLDRkdH/VUif3rRLox169bFW0uUcT5T/5kNvuY1r3E9wcSi/ebUf739/a821H8AALRGLF9W2Rm044dNFW0qKLBOnjz52GOPtXr9r+iev8QxF7WDh+Ku9+zZE3aho5TWf9puk1SCsIgIC/KRLfA1zYfl5eVDhw4tLi4G/WL5kn//n9jZiCohN6yRdz+cP13cxWru/xOfctBuFOy3EQ1zD9O3RfaSpslWMqX1n7afSStBWESEBfnIFvgS+TA/P79v377R0dG5ublwXcE3lWOt//7X73T97kcS4l4S4k0FuxDrNvH3GbGigyk65synJoZlOO/5Vksi2dYE9V+VEBYRYUE+sgW+OB+Wl5cPHjy4e/fugYGBoaGhRx55JBiQ0PQSGuosTra1Rf1XJYRFRFiQj2yBz88He8Fvy5Ytu3bt2rCipeKvQf2HJG0fPtR/VUJYRIQF+cgW+Ew+uAt+O3bsuOiii/pWtFH8AWnaPnyU1n/abpNUgrCICAvykS3w3XvvvSMjI6bgGxoaspUf0CXaPnyU1n8AAJRgeXn5wIEDo6OjAwMD9jy9adOmbdu2iT/7AHoG9R8AAI2vfvWrb3nLWwYHB/tWvv+lBERvo/4DAOA/ucuB/f39mzZtogREr6L+AwAg9NWvfvWqq64q+vf/gKpTWv9pu01SCcIiIizIR7bA1zQfiv7/H0CrmiZbyZTWf9p+Jq0EYRERFuQjW+AjH1AabclG/VclhEVEWJCPbIGPfEBptCUb9V+VEBYRYUE+sgU+8gGl0ZZs1H9VQlhEhAX5yBb4yAeURluyKa3/tN0mqQRhEREW5CNb4CMfUBptyaa0/gMAAECXUP8BAADUC/UfAABAvVD/AQAA1IvS+q/jt0mOjY2FXRXU8bD0BsKCfGQLfOQDSqMt2ZTWf+39TDoo8vyHk5OT3pr2LS0tDZ9m2uHqLnvFK15hd71r165Tp06FqzuqQhVze9mCeiJb4CMfUBptyVaX+q9T/G12Y/tpAwMDrt3tvXd7+x3UXragnsgW+MgHlEZbsvVU/Rdc5HMPp6amBgcHXf/x48fdNTzTtp2ZhZ04TOzM34s4UiTWf+J0s3Z2dtZ2uuuU4sVLcaTtd+1GwVwl2ssW1BPZAh/5gNJoS7aeqv8aBTVZ8FBs24b/V5SY29lOkV//uepWnG7q3enpadseHx8P1vptf6TtnJmZMUXe+vXrzV/TDsYbExMTrq1B29mCGiJb4CMfUBptyaa0/mv7NkmxqAoeim3b8P+KEnM72yk655xzTE1m/l5yySWuU5zeXqd/ATU4kk7dQNkNbWcLaohsgY98QGm0JZvS+q9tTz/99OQK0/D7/WpmcHDQfZU5OjrqD/D/ipqWUK6d2EvOSJGdcsMNN7hLeo2C6eKOmnb6gn7N3/8CAICW9Fr911gpXOKaRix9fLbT/ysaO323nPkrllBip5M/UiROEaeLA5p2+or6jT179oRdAACgOqpa/y0vLx86dGhxcTFcUfBNpV/N+BfP3K1sdoD/V7Rx48b9+/ebhvlr2rbTjZ+ennY/NEnspZExUuSmnzp1au/evbYtTs+//6/oyQb9/oH5ewQAAJVTvfpvfn7+mmuu2b59+9zcXLhuRVC4xL9mEL/KtJ3Hjh1Lf79pKs6zzjrLjDF/XfXpNuhfFEzsJWekSCzgxOlj0q96i0baRsAOdr//EOcCAIAqUlr/xbdJLi8vf/KTn7z44ov7+/tNCVJU/JVp586dU1NTYW83xWEpUlTV9aT8sABkC3zkA0qjLdmU1n/+z6Tn5+enp6c3bdpkyr6NGzdu27ZNQ/G3JvJ/PV6r+i8/LADZAh/5gNJoSza99Z+74Ldly5aBgYG+vj5T/9W5+Gvoyx4lCAvykS3wkQ8ojbZkU1r/7du3z1R7fUAGbW8qaEa2wEc+oDTakk1p/WfC9C//8i/vf//7t27d2t/fb0/zl19++fnnn8/1PwQIC/KRLfCRDyiNtmRTWv/5t0k+8MADpvKzVeDOnTvrXAJqu3tUCcKCfGQLfOQDSqMt2ZTWfzH/cuC5555b2xIQAABglSpT/zkPPPDA29/+9sS//wcAAICE6tV/VuL//wEAAICEqtZ/AAAAaI/S+k/bbZJKEBYRYUE+sgU+8gGl0ZZsSus/bT+TVoKwiAgL8pEt8JEPKI22ZKP+qxLCIiIsyEe2wEc+oDTako36r0oIi4iwIB/ZAh/5gNJoSzbqvyohLCLCgnxkC3zkA0qjLdmU1n/abpNUgrCICAvykS3wkQ8ojbZkU1r/AQAAoEuo/wAAAOqF+g8AAKBeqP8AAADqRWn9p+02SSUIi4iwZPr85z//oQ/d9pGPfLTOy/ve9/64s27LJz/5yR/96EdhfkTqkDB1yIfMl7sm1jCr1zDZxByg/qsSwiIiLDlmZ//yM5/5f06cOMnC8jd/89T113/ghz/8YZglHhKmZ5acl7smapvVYg4orf8AdNZNN9327W8vx58LLPVcHn/8qYMHD4ZZ4iFhemlp+nLXRJ2zOs4B6j+gFm688bb4E4Glzsvv/d7vhVniIWF6bEm/3DVR86wOckBd/Tc8PBx2FcgfmdCRjazSKo9hldOrbmJi4uyzzw57kzIjljmsKmr+wccSL+n/GwEJ02NL+uWuiZpndZADYf134MCB4RVnnHGGbZieYEx7XnjhBbtB0wjXefJPuvkjE/bs2RN2ZetUrIJjMNWM3drRo0f9/iKreQqr517W4WavbMLw6l7KeHo62eLxorUNbMfV/IOPJV7SBQEJ02NL+uWuiZpndZP6z8k8R+ZzG0xvOb3Wlz+y2zp7JG5rU1NTYvmiiv/c245D2xOteHo62cTOnlfzDz6WeEkXBCRMjy3pl7smap7VbdZ/zz777PBppu3GHD161Ha6SqXogpC7muIa4sjh0/v91ArbXuXexZGNtr46FA2/OFZFx+AG+O34GMSRw9lPQZyeH8BW+btzr2yru/M3Yh/GI8WouvH+w0Yy2eyWbae71OoO2G1ZDGx8VBVS8w8+lnhJFwQkTI8t6Ze7Jmqe1W3Wf/5D//Q5NTUVdO7evds2jB07dgRr/bbf6WbZzoceesj/LlWc7u/d7Ujcu3ic4sP2BBsRj8H/MjH4YjFxSOKTTYwPHoqhztlmPnFi/u6uueaa4dNfoJt2YqQYVSsnAm6K2bIr7OL4iHMt8agqpOYffCzxki4ISJgeW9Ivd03UPKs7Wf/5neLNUuJI1y6acuzYMVcKuM64LXb6xJHp2qs9iY24Vfb6k2ksLCykL1+Jzyv/KexZYdvr1q2zjVa3mU987k13l3jKwUPxwBLjg4fpvScaQTt4GKyqhJp/8LHES7ogIGF6bEm/3DVR86xus/5z35RZ4hhr27Ztbpi70OJPd53iN3p2ZFD/Nd27a4t790cGEqvyBRsRj8EyBdno6Kjf04im+w9dO3Gc8ap4VtMAtk3cSNPdBbPSD61EVIPxYrL5Y1w70QjawcNgVSXU/IOPJV7SBQEJ02NL+uWuiZpndZv1n3jCa9qZc1q1du7caRt2beL7X7EzvSNxupVYlS8RK9e2xe7Jkycfe+yxVV7/C8Sr4lnxmKLOVvkbcdfqxC2LzyvnYdyZHi+OTHfGjaAdPBSPULmaf/CxxEu6IOhqwgwNbYw785dVTm97Wav9dmRJv9w10dWs1r+0Wf/5d1wF9+oF0jda+W3xji631v/9h7h3/34sN6Dp3gOJVfmKYuUfQxv3/015v/9NHKe4anR09Morr3QPxQCKE1slvrJNd1f0lMWHlhhVKzE9PiQxMeJG0A4eikeoXNEH37Fjz5qzml1MOx7Q1cU/oVb35Jpz5B2Jc86O8pd0QSAmzPved4N9CmeccYZtmJ54WNPlNa95XdwZLK985c/YXfzxH//PNqa3uuTENmeMXSr3cteEmNUnCl4vl4F+pzhSXPJHJpau5sA6/4EvOMOJ39WKZ0Hxh5biubPpNg8cOPDQQw8lRsa/x2y6d0f85UF7gu03PQbXFo/BfX3p//t/wS4scboVfNFcFEA3oG3ilsVOf3fBru149xSCtZYYVTEC4o7E6UWN/M1WSNEHn//50tnPmpyl23vfsmUk7uz4knPkHXmmbU8Ul3RBUJQwdunskYiL28Xeve9o+/SZv+Q8o5wx8cj8WcHS9kRxSb/cNVGU1eLrld8pLvkjE0vbE8Ult/4D0EtW/8H3jW/8w9Dp/5w17VZHisvLX/6K88//OdMwf03bdor/3Ty0ch0o6BRH+p3bt59vO8VDcv9979bajYiDh6QDcKv8h+Lij3GXr/xO1xafVDz+RMFxFj2peEkXBEUJY5fgSMRj9sf47csvf5M5SH+6uORPL9p7/HqJI+NdBCPvvPMTiW2Ki7+1SrzcNVGU1fmvlzhSXMSR4jbXKgeo/4BayPngc+1udIqL+eS66qr/ahpvfvNb3El9585dboAr4MzavXvfYdtum+JIce/pzqAhDhYP4Fd/9Z1Dp78MNW03K17EU4W4I7/TPUFxR+npcSNY0gVBUcKI2xRfCP8pB0+/6JCKxgTjEw/dkfivlzsk8TjF2Lq1J1a+9f7c574cbDP9FCr3ctdEUVaLQfM73QsqvrLiIo5Mv4gnys0BRfXfj3/873/7t8c++tG7br31DrMcOPDh3//9e5588qlwXM0QliLHjv1/d955tw2LWUzb9ISDcFrOB5/48dGpTnGxa9etW7dly6vEkfnbTI9MdwaN9OCgHT8UF/uf+Lfc8pGiia4tnjbi8cHD+DjjRrCkC4KihElv019ln7JpfO1rj6evaoiL+OzEh2LEEtPFzvTDuFMc4JbKvdw1UZTVYtAS9/8Fr6y4iCPFF3GtckBL/ffNb377+utvvPfePzx27Bl3rKb9iU/84Y033vLcc8+FE+qBsIieeebZ/ftvisNieky/WRtOQN4Hn/jx4dr+p2EbI8XFrjXF3+tf/0Y3csuWETfXXRQUdySOFC87iYdU1EgPDtrxw8RiTgZm8IUXXhxPdO38L4PSxxk3giVdEBQljLhN8YWwiy3u09PFxR8TjA8eihETpyeOM72LuFMcECwVerlroiirbdDs69U0km6ke2UTi+YcUFH/Pfro/PXX37Sw8M/x4ZrF9N94462PP/54OK3XERbR//pf/68p8hJhMWvNmHBa7SU++OwtTfav6/QHxJ3x2qYjxaXp9DY6zX8JvPzlrxgqrgbiKUEjPTgeII4PFr8qFceLncEJJme/RU8qXtIFQVHCiNsUg2PPak88ceKBB76aPquJi7hN8aG/pE+0YmfOw7hTHOCWyr3cNVGU1eIrK0ay6SubP1LsLDMH1r7+e+qpb5kqJz7QYLn55gO1utxFWETPPvtP+/ffHMchWMwYMzKcXG9FH3xnn/1frr32v5mG+WvattN9fOzd+w53mcS/I8rdpJI/UlzEj1033d9m/ki//nMDxEOKPy5tIz04aMcPxUWc7v93vzt+8R61eCPB2vg440awpAuCooQRtym+EOKFWHG6uLgx8e9/g+lixF4p3f8nHqddip7RCe/+P/FFFBdxpOaXuyaKslpMDDGS4isrLuJIVTmwxvXfqVM//u///YNF13L85fjxpVtvvTWc36MIS5Hf/d3CK3/+YsaYkeHkeiv64HviiRNnnnmm+bwwf03bdroPKf+ioPglRf5IcfE/p+LpTS9JiiPFskM8pHjjtpEeHLTd+PTvP8Rt+ovbZmJksCNxpNtO3AiWdEFQlDDiNsUXwh/j2uJd7eLivury//0/cXpRHOLf6orH6a8St+n//teND6YHi3hI/uKmJ0YmDqnjL3dNFGW1mBhiJMVXQVyajnTbT4zsag6scf33N3/zd/fd9+n4KMXl05/+v556qha/eyAsoieffPL++3PDYkaa8eEmaqzog89fzH9cXn75m+L+ai3+Z1/R56DCpfxDTRcEOQmjeSk/ni0t5R9e+uWuCVVZveY5sMb138zMXf4t/Onlm9987r777gs30YsIi+iee+7ND4sZacaHm6gxVR98XV38/0QOvkzRtoj/NV/aki4Iqp4w5Z9cmy6aX+6aWPOsVpUDa1z/3XTT7fEhFi3PPvv9mmQwYRHdfvtM/PQTixkfbqLG1vyDj0Xbkv7cIGF6bEm/3DVR86yucP33zDN1KXQIi+j225v/k0v+YsaHm6ixmn/wscRL+nODhOmxJf1y10TNs1pX/XfzzS0UOs8990JNMpiwiD784dau/5nx4SZqrOYffCzxkv7cIGF6bEm/3DVR86zWVf/deec9+Xd0fetbz9fkRjfCIrr33k/kh2Xln4P+RLiJGqv5Bx9LvKQLAhKmx5b0y10TNc9qXfXf3//9P+T/0PXQof+7Jj90JSwi8zQPHvxsHAFxMSNrEpZMLd1UwNLzS9P7hkmYXlqavtw1UeesjnNgjes/Y//+G3P+Rbfnnls+cOBAOLl3ERbRzTffmhMWM8aMDCfX20c+cqf75/1YWD7/+T/58pe/HGaJh4TppaXpy10Tdc7qOAfWvv7L+T86PPfcC7fddjv/owvCYp7szTcfiEMRLHX736Lk+P73vz8zc+dtt33kQx/6MEvNl9tu+//bu4OWqKI4jMPf0ZVLP4cxYc4iaGaXCEGg0sqFe/fitty4SKlFFoFB4GYWwlAHg8FO/2rOOM69597nIWQ6d5jwl9DLaDPPT05O8i+R3/mC6cyvef66e6K3X9Xh10Dz+y95+/bdkydbf3te5/Pn72nl9PCNbmUJpU95a2v748dvfzb5dPeGKOlqD7MAwPxasf9+3D2v8/Tps1ev9u7/gP+HD1/3998Mh8PePpcjSyh94tvb269f779//2WWJd1OJ+m8t1kAYE5t2X+/XF5evny58+LFaGNjYzQa7+zspJP8Tv0jSyhFSClGo19ZRrIAwJzatf9m/E+lkCwhWQCgiP1XE1lCsgBAEfuvJrKEZAGAIvZfTWQJyQIARey/msgSkgUAith/NZElJAsAFLH/aiJLSBYAKLLq/Xd4eDiew9raWn4USY+W/wF1kiUkCwA8hlXvvzmNPaMTkSUkCwAUsf9qIktIFgAoYv/VRJaQLABQxP6riSwhWQCgiP1XE1lCsgBAEfuvJrKEZAGAIvZfTWQJyQIARey/msgSkgUAith/NZElJAsAFLH/aiJLSBYAKGL/1USWkCwAUMT+q4ksIVkAoIj9VxNZQrIAQBH7ryayhGQBgCL2X01kCckCAEXsv5rIEpIFAIrYfzWRJSQLABSx/2oiS0gWACjSxv03mUzW19fTx/xCv8kSkgUASrVu/02n08FgcH5+nj6m2/nlvpIlJAsALKB1+288Hl9cXKQb6aPv683IEpIFABbQrv13cHBweno6+226nU7uXe8pWUKyAMBiWrT/jo+Pj46OssN0ks6zw16RJSQLACysLfvv7Oxsd3c3P72TztPV/LQfZAnJAgAP0Yr9d3V1NRwO89N70tV0n/y062QJyQIAD9T8/ru5udnc3Ly9vc0v3JOupvuke+YXukuWkCwA8HAN77/5/6me5x/+zpAlJAsALEXD+6/oW3X//cZfZ8gSkgUAlqLJ/bfAj+r/4wf/O0OWkCwAsCyN7b+FX6ojfOGPzpAlJAsALFEz+++BL9WbvfBvZ8gSkgUAlquB/beUt+qavfFXZ8gSkgUAlm7V++/6+nowGEyn0/xCofQI6XHSo+UX6iRLSBYAeAyr3n97e3uTySQ/XUh6nPRo+WmdZAnJAgCPYdX7DwCAZtl/AAD9Yv8BAPSL/QcA0C/2HwBAv/wEarNxZzFsgkgAAAAASUVORK5CYII=;" vertex="1" parent="1">
            <mxGeometry x="20" y="-10" width="853" height="599" as="geometry" />
          </mxCell>
        </UserObject>
      </root>
    </mxGraphModel>
  </diagram>
</mxfile>
